<?xml version="1.0" encoding="utf-8"?>
<svg xmlns="http://www.w3.org/2000/svg" xmlns:xlink="http://www.w3.org/1999/xlink">
  <a xlink:href="diagram.html">
    <path fill="rgb(255,0,0)" stroke="rgb(255,0,0)" stroke-width="0" d="M 139.457 179.969 C 143.466 177.855 150.244 179.492 159.457 182.969 C 175.705 189.1 224.747 216.15 231.957 224.469 C 234.642 227.567 233.215 229.457 232.957 231.469 C 232.733 233.209 232.389 235.009 230.957 235.969 C 229.091 237.22 226.945 238.422 221.457 236.969 C 207.544 233.284 141.34 202.184 134.957 191.469 C 132.167 186.785 136.166 181.704 139.457 179.969 Z" style="fill: rgb(166, 209, 48); stroke: rgb(129, 151, 57); stroke-width: 2px;"/>
  </a>
  <a xlink:href="square.svg">
    <path fill="rgb(255,0,0)" stroke="rgb(255,0,0)" stroke-width="0" d="M 139.457 227.969 C 143.466 225.855 150.244 227.492 159.457 230.969 C 175.705 237.1 224.747 264.15 231.957 272.469 C 234.642 275.567 233.215 277.457 232.957 279.469 C 232.733 281.209 232.389 283.009 230.957 283.969 C 229.091 285.22 226.945 286.422 221.457 284.969 C 207.544 281.284 141.34 250.184 134.957 239.469 C 132.167 234.785 136.166 229.704 139.457 227.969 Z" style="fill: rgb(166, 209, 48); stroke: rgb(129, 151, 57); stroke-width: 2px;"/>
  </a>
</svg>